<svg xmlns="http://www.w3.org/2000/svg" width="500" height="500" viewBox="0 0 500 500" fill="none">
<path d="M76.2 317.5C76.1 308.5 76.05 299.55 76.05 290.65C76.15 281.65 76.2 272.65 76.2 263.65C76.2 254.55 76.25 245.5 76.35 236.5C76.55 227.5 76.7 218.5 76.8 209.5C77 200.5 77.3 191.5 77.7 182.5C77.9 177 78.85 172.7 80.55 169.6C82.35 166.4 84.85 164.1 88.05 162.7C91.35 161.2 95.35 160.3 100.05 160C104.85 159.6 110.45 159.4 116.85 159.4C130.55 159.4 143 160.25 154.2 161.95C165.4 163.65 174.3 167.1 180.9 172.3C187.6 177.4 190.95 185.1 190.95 195.4C190.95 203.6 189.7 209.95 187.2 214.45C184.7 218.85 181.85 222.1 178.65 224.2C175.45 226.2 172.65 227.7 170.25 228.7C167.85 229.7 166.65 230.9 166.65 232.3C166.65 233.3 166.95 234.05 167.55 234.55C168.15 234.95 169.1 235.3 170.4 235.6C179.2 237.6 187.3 240.7 194.7 244.9C202.2 249.1 208.2 255 212.7 262.6C217.2 270.1 219.45 279.9 219.45 292C219.45 306.4 215.9 318.6 208.8 328.6C201.8 338.5 191.95 346 179.25 351.1C166.55 356.1 151.75 358.6 134.85 358.6C119.45 358.6 107.55 357.1 99.15 354.1C90.75 351.1 84.85 346.55 81.45 340.45C78.05 334.35 76.3 326.7 76.2 317.5ZM122.1 179.5C117.2 179.5 113.25 179.9 110.25 180.7C107.35 181.4 105.25 182.65 103.95 184.45C102.65 186.25 102 188.8 102 192.1C102 197.2 102.45 202.15 103.35 206.95C104.35 211.65 106.05 215.55 108.45 218.65C110.85 221.75 114.15 223.3 118.35 223.3C123.75 223.3 129.35 222.8 135.15 221.8C140.95 220.7 146.3 219.1 151.2 217C156.1 214.8 160.1 212.15 163.2 209.05C166.3 205.95 167.85 202.4 167.85 198.4C167.85 192.7 166.45 188.55 163.65 185.95C160.85 183.25 156.1 181.5 149.4 180.7C142.8 179.9 133.7 179.5 122.1 179.5ZM100.5 300.7C100.5 311.2 100.95 319.25 101.85 324.85C102.85 330.35 105.4 334.15 109.5 336.25C113.6 338.35 120.35 339.4 129.75 339.4C134.25 339.4 138.25 339.1 141.75 338.5C145.35 337.9 148.4 337.05 150.9 335.95C153.5 334.85 155.6 333.4 157.2 331.6C158.9 329.8 160.15 327.65 160.95 325.15C161.75 322.55 162.15 319.65 162.15 316.45C162.15 309.95 161.3 303.2 159.6 296.2C157.9 289.1 155.35 282.55 151.95 276.55C148.65 270.45 144.6 265.55 139.8 261.85C135 258.05 129.65 256.15 123.75 256.15C117.05 256.15 112 258 108.6 261.7C105.3 265.4 103.1 270.6 102 277.3C101 284 100.5 291.8 100.5 300.7ZM168.6 266.5C171.5 266.5 173.85 265.7 175.65 264.1C177.45 262.4 178.35 260.3 178.35 257.8C178.35 254.3 177.35 251.7 175.35 250C173.35 248.2 170.9 247.3 168 247.3C165.2 247.3 163 248.15 161.4 249.85C159.8 251.45 159 254.1 159 257.8C159 260.2 159.9 262.25 161.7 263.95C163.6 265.65 165.9 266.5 168.6 266.5ZM191.25 295.6C195.45 295.6 198.45 294.45 200.25 292.15C202.15 289.85 203.1 286.6 203.1 282.4C203.1 279.2 202.1 276.65 200.1 274.75C198.1 272.85 195.35 271.9 191.85 271.9C187.45 271.9 184.15 272.9 181.95 274.9C179.75 276.8 178.65 279.8 178.65 283.9C178.65 287.5 179.65 290.35 181.65 292.45C183.65 294.55 186.85 295.6 191.25 295.6ZM185.85 327.1C189.25 327.1 191.9 326.3 193.8 324.7C195.7 323 196.65 320.3 196.65 316.6C196.65 314.5 195.8 312.55 194.1 310.75C192.5 308.85 189.9 307.9 186.3 307.9C183.9 307.9 181.85 308.75 180.15 310.45C178.45 312.05 177.6 314.3 177.6 317.2C177.6 320.2 178.45 322.6 180.15 324.4C181.85 326.2 183.75 327.1 185.85 327.1ZM105.45 165.4L87 172.6C80.7 161.5 76.25 152.25 73.65 144.85C71.05 137.45 70.3 131.95 71.4 128.35C72.5 124.65 75.55 122.8 80.55 122.8C83.05 122.8 85.4 124.05 87.6 126.55C89.9 129.05 92.4 133.45 95.1 139.75C97.9 145.95 101.35 154.5 105.45 165.4ZM118.8 173.8L101.85 171.7C101.75 169.7 102 168 102.6 166.6C103.2 165.2 104.1 164.05 105.3 163.15C106.5 162.25 108.1 161.8 110.1 161.8C112.4 161.8 114.25 162.35 115.65 163.45C117.05 164.45 118 165.85 118.5 167.65C119.1 169.35 119.2 171.4 118.8 173.8ZM138.3 164.8L117.6 166.3C116.3 151.1 115.75 139.8 115.95 132.4C116.15 124.9 117.15 120 118.95 117.7C120.75 115.3 123.3 114.1 126.6 114.1C129.8 114.1 132.25 115.15 133.95 117.25C135.65 119.35 136.8 123.45 137.4 129.55C138.1 135.65 138.4 144.65 138.3 156.55C138.3 157.85 138.3 159.2 138.3 160.6C138.4 161.9 138.4 163.3 138.3 164.8ZM168.6 171.7L150.75 167.5C153.95 156.1 156.7 146.95 159 140.05C161.3 133.15 163.5 128.2 165.6 125.2C167.7 122.2 170.05 120.7 172.65 120.7C179.15 120.7 182.85 122.8 183.75 127C184.75 131.1 183.75 137 180.75 144.7C177.85 152.3 173.8 161.3 168.6 171.7ZM199.35 185.2C197.05 186.2 194.65 187.3 192.15 188.5C189.65 189.6 187.05 190.6 184.35 191.5C181.65 192.5 179.25 192.65 177.15 191.95C175.05 191.25 173.45 189.5 172.35 186.7C171.05 183.8 171.05 181.25 172.35 179.05C173.65 176.85 175.3 175.1 177.3 173.8C178.6 173 180.05 172.1 181.65 171.1C183.35 170.1 185 169.1 186.6 168.1C190.5 166.1 194.25 164.3 197.85 162.7C201.45 161.1 204.75 160.5 207.75 160.9C210.85 161.2 213.3 163.1 215.1 166.6C216.3 169.3 216.2 171.75 214.8 173.95C213.5 176.15 211.45 178.2 208.65 180.1C205.95 181.9 202.85 183.6 199.35 185.2ZM176.85 217.9L185.1 201.4C193.2 204.6 199.35 207.3 203.55 209.5C207.85 211.7 210.75 213.6 212.25 215.2C213.75 216.8 214.5 218.55 214.5 220.45C214.5 225.65 212.9 228.7 209.7 229.6C206.5 230.4 202.05 229.7 196.35 227.5C190.65 225.2 184.15 222 176.85 217.9ZM130.8 326.5C127.1 334.6 123.05 343.25 118.65 352.45C114.25 361.55 110.6 368.9 107.7 374.5C103.4 382.6 99.85 387.5 97.05 389.2C94.35 391 91.25 391.4 87.75 390.4C84.05 389 81.7 386.25 80.7 382.15C79.7 378.05 81.65 371.9 86.55 363.7C89.25 358.8 92.3 353.4 95.7 347.5C99.2 341.6 102.7 335.65 106.2 329.65C109.7 323.65 112.95 318 115.95 312.7C119.55 306.9 122.75 303.5 125.55 302.5C128.45 301.5 130.95 301.7 133.05 303.1C136.15 304.9 137.2 307.85 136.2 311.95C135.2 316.05 133.4 320.9 130.8 326.5Z" fill="#298D76"/>
<path d="M288 355H248V198H288V355ZM333 355H301V325H333V355ZM380 355H346V343H380V355ZM443 355H393V343H443V355ZM380 333H346V326H380V333ZM443 333H393V181H443V333ZM333 309H301V300H333V309ZM380 309H346V229H380V309ZM333 292H301V195H333V292ZM288 192H248V188H288V192ZM288 176H248V157H288V176ZM443 171H393V157H443V171Z" fill="#298D76"/>
</svg>