<svg width="1200" height="400" viewBox="0 0 1200 400" fill="none" xmlns="http://www.w3.org/2000/svg">
<g clip-path="url(#clip0_7_19)">
<path d="M420.062 223.422C416.26 226.443 411.312 228.786 405.219 230.453C399.125 232.12 391.625 232.953 382.719 232.953C373.865 232.953 364.438 232.146 354.438 230.531V127.562C364.542 125.948 373.292 125.141 380.688 125.141C388.135 125.141 394.229 125.844 398.969 127.25C403.76 128.656 407.667 130.557 410.688 132.953C416.625 137.589 419.594 143.604 419.594 151C419.594 158.344 416.911 164.438 411.547 169.281C417.901 171.26 422.823 175.01 426.312 180.531C429.49 185.479 431.078 190.974 431.078 197.016C431.078 203.005 430.193 208.135 428.422 212.406C426.703 216.677 423.917 220.349 420.062 223.422ZM375.141 166.391C377.328 166.755 380.062 166.938 383.344 166.938C386.625 166.938 389.307 166.521 391.391 165.688C393.526 164.802 395.167 163.708 396.312 162.406C398.188 160.271 399.125 157.302 399.125 153.5C399.125 145.531 394.438 141.547 385.062 141.547C381.104 141.547 377.797 141.703 375.141 142.016V166.391ZM386.703 183.109C382.328 183.109 378.474 183.396 375.141 183.969V214.672C378.786 215.609 382.615 216.078 386.625 216.078C390.635 216.078 394.151 215.609 397.172 214.672C400.245 213.682 402.823 212.354 404.906 210.688C409.125 207.25 411.234 202.875 411.234 197.562C411.234 187.927 403.057 183.109 386.703 183.109ZM456.547 218.656C451.807 214.125 448.057 208.682 445.297 202.328C442.589 195.974 441.234 189.021 441.234 181.469C441.234 173.865 442.51 166.677 445.062 159.906C447.615 153.135 451.26 147.172 456 142.016C460.74 136.859 466.469 132.771 473.188 129.75C479.906 126.677 487.432 125.141 495.766 125.141C510.141 125.141 522.25 129.672 532.094 138.734C542.615 148.422 547.875 161.495 547.875 177.953C547.875 193.891 542.458 207.146 531.625 217.719C524.958 224.229 517.016 228.708 507.797 231.156C503.266 232.354 497.953 232.953 491.859 232.953C485.818 232.953 479.594 231.703 473.188 229.203C466.833 226.703 461.286 223.188 456.547 218.656ZM462.953 180.375C462.953 185.219 463.76 189.672 465.375 193.734C466.99 197.797 469.229 201.286 472.094 204.203C478.188 210.349 486.026 213.422 495.609 213.422C504.724 213.422 512.042 210.479 517.562 204.594C523.188 198.5 526 190.193 526 179.672C526 169.776 523.318 161.521 517.953 154.906C512.172 147.823 504.255 144.281 494.203 144.281C484.464 144.281 476.729 147.875 471 155.062C465.635 161.781 462.953 170.219 462.953 180.375ZM605.219 231.312C603.656 231.104 601 231 597.25 231H588.188C586.417 231 584.958 231.052 583.812 231.156L583.734 231C583.943 230.635 584.047 230.219 584.047 229.75C584.047 229.281 583.995 228.786 583.891 228.266C583.839 227.745 583.63 226.807 583.266 225.453C582.953 224.099 582.458 222.146 581.781 219.594L555.219 126.781C558.552 126.99 562.589 127.094 567.328 127.094C572.068 127.094 575.141 126.885 576.547 126.469L594.984 197.172L612.953 126.781C613.734 126.833 614.438 126.885 615.062 126.938H616.781C618.5 127.042 620.661 127.094 623.266 127.094C625.87 127.094 628.552 126.885 631.312 126.469L649.594 197.172L665.297 126.781C668.422 126.99 672.51 127.094 677.562 127.094C682.615 127.094 685.688 126.885 686.781 126.469L664.281 208.891C661.417 218.37 659.906 223.995 659.75 225.766C659.594 227.536 659.516 228.76 659.516 229.438C659.516 230.115 659.62 230.661 659.828 231.078L659.672 231.312C658.005 231.104 655.375 231 651.781 231C648.656 231 645.818 231 643.266 231C640.714 231 638.865 231.052 637.719 231.156L637.641 231C637.849 230.635 637.953 230.219 637.953 229.75C637.953 229.281 637.927 228.812 637.875 228.344C637.823 227.875 637.667 226.99 637.406 225.688C637.198 224.333 636.833 222.354 636.312 219.75L634.203 209.125L621.391 160.453L609.203 208.891C606.703 218.839 605.401 224.568 605.297 226.078C605.089 228.943 605.115 230.609 605.375 231.078L605.219 231.312ZM767.25 223.422C763.448 226.443 758.5 228.786 752.406 230.453C746.312 232.12 738.812 232.953 729.906 232.953C721.052 232.953 711.625 232.146 701.625 230.531V127.562C711.729 125.948 720.479 125.141 727.875 125.141C735.323 125.141 741.417 125.844 746.156 127.25C750.948 128.656 754.854 130.557 757.875 132.953C763.812 137.589 766.781 143.604 766.781 151C766.781 158.344 764.099 164.438 758.734 169.281C765.089 171.26 770.01 175.01 773.5 180.531C776.677 185.479 778.266 190.974 778.266 197.016C778.266 203.005 777.38 208.135 775.609 212.406C773.891 216.677 771.104 220.349 767.25 223.422ZM722.328 166.391C724.516 166.755 727.25 166.938 730.531 166.938C733.812 166.938 736.495 166.521 738.578 165.688C740.714 164.802 742.354 163.708 743.5 162.406C745.375 160.271 746.312 157.302 746.312 153.5C746.312 145.531 741.625 141.547 732.25 141.547C728.292 141.547 724.984 141.703 722.328 142.016V166.391ZM733.891 183.109C729.516 183.109 725.661 183.396 722.328 183.969V214.672C725.974 215.609 729.802 216.078 733.812 216.078C737.823 216.078 741.339 215.609 744.359 214.672C747.432 213.682 750.01 212.354 752.094 210.688C756.312 207.25 758.422 202.875 758.422 197.562C758.422 187.927 750.245 183.109 733.891 183.109ZM803.734 218.656C798.995 214.125 795.245 208.682 792.484 202.328C789.776 195.974 788.422 189.021 788.422 181.469C788.422 173.865 789.698 166.677 792.25 159.906C794.802 153.135 798.448 147.172 803.188 142.016C807.927 136.859 813.656 132.771 820.375 129.75C827.094 126.677 834.62 125.141 842.953 125.141C857.328 125.141 869.438 129.672 879.281 138.734C889.802 148.422 895.062 161.495 895.062 177.953C895.062 193.891 889.646 207.146 878.812 217.719C872.146 224.229 864.203 228.708 854.984 231.156C850.453 232.354 845.141 232.953 839.047 232.953C833.005 232.953 826.781 231.703 820.375 229.203C814.021 226.703 808.474 223.188 803.734 218.656ZM810.141 180.375C810.141 185.219 810.948 189.672 812.562 193.734C814.177 197.797 816.417 201.286 819.281 204.203C825.375 210.349 833.214 213.422 842.797 213.422C851.911 213.422 859.229 210.479 864.75 204.594C870.375 198.5 873.188 190.193 873.188 179.672C873.188 169.776 870.505 161.521 865.141 154.906C859.359 147.823 851.443 144.281 841.391 144.281C831.651 144.281 823.917 147.875 818.188 155.062C812.823 161.781 810.141 170.219 810.141 180.375ZM923.734 218.656C918.995 214.125 915.245 208.682 912.484 202.328C909.776 195.974 908.422 189.021 908.422 181.469C908.422 173.865 909.698 166.677 912.25 159.906C914.802 153.135 918.448 147.172 923.188 142.016C927.927 136.859 933.656 132.771 940.375 129.75C947.094 126.677 954.62 125.141 962.953 125.141C977.328 125.141 989.438 129.672 999.281 138.734C1009.8 148.422 1015.06 161.495 1015.06 177.953C1015.06 193.891 1009.65 207.146 998.812 217.719C992.146 224.229 984.203 228.708 974.984 231.156C970.453 232.354 965.141 232.953 959.047 232.953C953.005 232.953 946.781 231.703 940.375 229.203C934.021 226.703 928.474 223.188 923.734 218.656ZM930.141 180.375C930.141 185.219 930.948 189.672 932.562 193.734C934.177 197.797 936.417 201.286 939.281 204.203C945.375 210.349 953.214 213.422 962.797 213.422C971.911 213.422 979.229 210.479 984.75 204.594C990.375 198.5 993.188 190.193 993.188 179.672C993.188 169.776 990.505 161.521 985.141 154.906C979.359 147.823 971.443 144.281 961.391 144.281C951.651 144.281 943.917 147.875 938.188 155.062C932.823 161.781 930.141 170.219 930.141 180.375ZM1055.14 231.469C1051.55 231.156 1046.96 231 1041.39 231H1035.22V126.781L1038.34 126.938C1040.53 127.042 1042.17 127.094 1043.27 127.094H1045.53C1050.11 127.094 1053.32 126.885 1055.14 126.469V170.609L1086.78 126.781C1090.11 126.99 1092.93 127.094 1095.22 127.094H1099.52C1104.88 127.094 1108.71 126.885 1111 126.469L1080.84 165.844L1110.53 224.75C1111.78 227.615 1112.95 229.698 1114.05 231H1109.28C1098.29 231 1091.44 231.208 1088.73 231.625C1088.16 228.135 1087.38 225.089 1086.39 222.484L1066.47 184.516L1055.14 199.359V231.469Z" fill="black"/>
<circle cx="105" cy="271" r="30" fill="#6F597A"/>
<rect x="90" y="47" width="30" height="200" fill="#6F597A"/>
<rect x="320" y="256" width="30" height="200" transform="rotate(90 320 256)" fill="#6F597A"/>
<circle cx="105" cy="271" r="15" fill="#AF92B5"/>
<path d="M201.487 80.0383C181.005 71.6153 159.099 67.1916 136.954 67.0061L135.5 240.5L201.487 80.0383Z" fill="#F8F3DB"/>
<path d="M282.232 147.914C271.446 130.821 257.756 115.743 241.78 103.362L135.5 240.5L282.232 147.914Z" fill="#F8F3DB"/>
<path d="M309 240.5C309 222.289 306.133 204.192 300.504 186.874L135.5 240.5H309Z" fill="#F8F3DB"/>
</g>
<defs>
<clipPath id="clip0_7_19">
<rect width="1200" height="400" fill="white"/>
</clipPath>
</defs>
</svg>
