<svg width="24" height="24" viewBox="0 0 512 512" fill="none" xmlns="http://www.w3.org/2000/svg">
<g transform="translate(0,512) scale(0.1,-0.1)" fill="#000000">
<path d="M393 5106 c-90 -22 -164 -65 -239 -140 -133 -133 -181 -297 -139
-475 35 -145 5 -113 949 -1058 l871 -873 -871 -872 c-944 -946 -914 -914 -949
-1059 -42 -178 6 -342 139 -475 133 -133 297 -181 475 -139 145 35 113 6 1059
949 l872 871 873 -871 c945 -943 913 -914 1058 -949 178 -42 342 6 475 139
133 133 181 297 139 475 -35 145 -5 113 -949 1058 l-871 873 871 872 c943 946
914 914 949 1059 41 174 -5 335 -132 470 -158 167 -397 206 -607 97 -52 -27
-188 -158 -933 -902 l-873 -871 -872 871 c-844 843 -875 873 -948 908 -115 55
-232 70 -347 42z"/>
</g>
</svg>
