<svg width="24" height="24" viewBox="0 0 512 512" fill="none" xmlns="http://www.w3.org/2000/svg">
<g transform="translate(0,512) scale(0.1,-0.1)" fill="#000000">
<path d="M405 4471 c-90 -22 -173 -90 -215 -176 -34 -69 -35 -198 -2 -265 34
-71 75 -113 144 -151 l63 -34 2165 0 2165 0 51 27 c76 40 107 70 145 140 31
58 34 70 34 148 0 78 -3 90 -34 148 -37 69 -79 109 -151 144 l-45 23 -2145 2
c-1180 0 -2158 -2 -2175 -6z M405 2871 c-90 -22 -173 -90 -215 -176 -34 -69
-35 -198 -2 -265 34 -71 75 -113 144 -151 l63 -34 2165 0 2165 0 51 27 c76 40
107 70 145 140 31 58 34 70 34 148 0 78 -3 90 -34 148 -37 69 -79 109 -151
144 l-45 23 -2145 2 c-1180 0 -2158 -2 -2175 -6z M405 1271 c-90 -22 -173 -90
-215 -176 -34 -69 -35 -198 -2 -265 34 -71 75 -113 144 -151 l63 -34 2165 0
2165 0 51 27 c76 40 107 70 145 140 31 58 34 70 34 148 0 78 -3 90 -34 148
-37 69 -79 109 -151 144 l-45 23 -2145 2 c-1180 0 -2158 -2 -2175 -6z"/>
</g>
</svg>
